<?xml version="1.0" standalone="no"?>
<!DOCTYPE svg PUBLIC "-//W3C//DTD SVG 20010904//EN"
 "http://www.w3.org/TR/2001/REC-SVG-20010904/DTD/svg10.dtd">
<svg version="1.0" xmlns="http://www.w3.org/2000/svg"
 width="300.000000pt" height="300.000000pt" viewBox="0 0 300.000000 300.000000"
 preserveAspectRatio="xMidYMid meet">
<metadata>
Created by potrace 1.10, written by Peter Selinger 2001-2011
</metadata>
<g transform="translate(0.000000,300.000000) scale(0.100000,-0.100000)"
fill="#000000" stroke="none">
<path d="M1208 2975 c-5 -6 -35 -13 -73 -19 -42 -7 -143 -40 -220 -73 -296
-127 -543 -345 -711 -626 -95 -160 -176 -400 -188 -557 -7 -93 6 -67 30 57 9
49 33 141 55 206 158 484 571 867 1059 982 76 18 112 35 74 35 -12 0 -23 -2
-26 -5z"/>
<path d="M1760 2972 c20 -13 87 -27 77 -16 -8 8 -14 10 -62 19 -21 4 -26 3
-15 -3z"/>
<path d="M1853 2953 c6 -9 19 -13 85 -28 6 -2 12 0 12 5 0 4 -12 10 -27 14
-16 3 -39 9 -52 12 -16 5 -22 3 -18 -3z"/>
<path d="M1965 2920 c3 -5 12 -10 18 -10 7 0 29 -9 50 -20 43 -23 47 -24 47
-9 0 5 -4 7 -10 4 -5 -3 -10 -1 -10 4 0 6 -3 10 -7 9 -5 0 -25 6 -45 15 -43
20 -52 21 -43 7z"/>
<path d="M2200 2822 c0 -5 32 -28 70 -50 39 -22 70 -37 70 -32 0 5 -28 25 -62
46 -82 48 -78 47 -78 36z"/>
<path d="M2350 2733 c0 -5 29 -32 64 -60 36 -29 62 -45 60 -38 -3 8 -27 31
-52 51 -70 56 -72 57 -72 47z"/>
<path d="M2490 2624 c0 -14 132 -146 139 -139 3 3 -27 38 -67 78 -40 39 -72
67 -72 61z"/>
<path d="M2636 2473 c-3 -3 9 -22 27 -42 17 -20 39 -47 48 -61 9 -14 19 -23
22 -20 3 3 -16 33 -42 67 -27 34 -51 59 -55 56z"/>
<path d="M2754 2307 c15 -19 26 -39 26 -45 0 -7 5 -12 11 -12 5 0 8 -3 5 -8
-5 -9 22 -48 29 -41 7 7 -75 139 -86 139 -6 0 1 -15 15 -33z"/>
<path d="M1014 2171 c-73 -53 -67 -21 -108 -561 -20 -272 -36 -506 -35 -520 3
-54 29 180 53 475 35 425 45 509 67 545 22 35 60 56 85 46 19 -7 18 -70 -10
-436 -26 -349 -28 -383 -31 -519 -2 -132 -3 -135 -29 -158 -38 -32 -87 -31
-125 5 -26 23 -52 95 -199 552 l-169 525 -42 33 c-25 18 -54 32 -70 32 -33 0
-61 -27 -61 -60 0 -12 57 -197 126 -409 69 -212 162 -498 207 -636 44 -137 85
-256 90 -262 12 -17 89 -16 130 0 51 22 96 65 124 121 24 47 27 65 34 226 7
146 37 556 65 892 12 133 -21 169 -102 109z m-543 -51 c18 -18 40 -68 63 -142
96 -297 240 -742 268 -820 37 -108 84 -158 146 -158 21 0 43 5 50 12 9 9 12 6
12 -13 0 -36 -52 -112 -95 -139 -45 -28 -116 -38 -132 -19 -11 15 -30 67 -87
249 -20 63 -41 129 -47 145 -17 51 -128 389 -205 628 -68 211 -88 297 -65 282
5 -3 13 -1 16 5 10 16 47 2 76 -30z"/>
<path d="M1374 2192 c-33 -21 -34 -50 -34 -690 l0 -639 66 -34 66 -33 19 23
c18 21 19 46 21 330 0 168 0 318 -1 334 -2 18 9 41 32 70 36 45 64 90 148 235
30 52 78 135 107 185 54 94 105 154 148 177 20 11 27 11 43 -4 19 -17 19 -19
-16 -84 -19 -37 -41 -74 -48 -82 -7 -8 -27 -42 -45 -75 -36 -67 -190 -330
-227 -388 -13 -20 -30 -65 -39 -100 -23 -94 -22 -92 -43 -66 -10 13 -25 38
-34 54 -10 18 -16 23 -17 14 0 -28 28 -84 68 -135 22 -27 97 -134 167 -238
120 -176 182 -246 220 -246 17 0 42 31 50 62 6 24 -18 64 -184 307 -105 154
-191 284 -191 289 0 5 12 27 26 48 15 21 102 168 195 326 163 279 167 288 158
323 -17 61 -56 60 -136 -3 -41 -33 -72 -81 -213 -324 l-165 -286 -3 286 c-2
255 -4 288 -20 305 -39 44 -97 73 -118 59z m74 -63 l32 -31 1 -237 c1 -130 4
-252 7 -271 7 -41 7 -95 0 -455 -5 -267 -9 -305 -32 -305 -19 0 -74 38 -85 59
-7 13 -10 219 -8 631 2 592 3 612 21 626 26 19 28 19 64 -17z m313 -877 c5 -2
9 -7 9 -12 0 -4 29 -51 65 -103 36 -52 65 -100 65 -106 0 -5 6 -14 13 -18 18
-12 76 -100 82 -126 3 -12 -1 -31 -9 -42 -14 -19 -16 -19 -43 -4 -27 16 -50
46 -246 321 l-88 123 5 52 c4 28 11 64 16 79 10 27 12 25 66 -67 31 -52 60
-95 65 -97z"/>
<path d="M2351 2163 c-50 -36 -60 -51 -187 -288 -92 -172 -133 -260 -134 -283
0 -46 23 -86 65 -112 34 -21 44 -22 253 -19 119 2 223 0 230 -4 6 -5 12 -15
12 -24 0 -8 -66 -142 -146 -297 -122 -236 -144 -285 -137 -306 11 -33 52 -37
101 -10 28 16 46 39 74 93 21 40 91 173 158 297 66 124 120 235 120 248 0 40
-28 91 -62 112 -30 18 -50 20 -254 20 -244 0 -252 2 -241 60 4 16 65 127 137
248 71 120 130 228 130 241 0 35 -18 61 -44 61 -12 0 -46 -17 -75 -37z m79
-18 c15 -18 16 -17 -106 -222 -107 -179 -144 -253 -144 -285 0 -33 31 -68 63
-69 12 0 109 -3 216 -5 155 -4 200 -8 222 -21 43 -25 61 -81 40 -121 -5 -9
-69 -136 -141 -282 -73 -146 -140 -273 -149 -284 -21 -24 -76 -47 -95 -40 -8
3 -17 12 -20 20 -5 13 5 33 89 189 18 33 50 92 70 130 21 39 55 99 75 135 51
88 67 136 54 158 -23 37 -50 40 -263 35 -195 -4 -208 -4 -238 16 -39 24 -53
70 -40 124 5 20 13 37 18 37 5 0 9 5 9 11 0 6 38 79 84 162 46 84 93 171 105
193 32 61 99 129 132 133 4 1 12 -6 19 -14z"/>
<path d="M2850 2125 c0 -12 24 -55 32 -55 13 0 10 17 -7 33 -8 8 -11 17 -8 21
4 3 1 6 -5 6 -7 0 -12 -2 -12 -5z"/>
<path d="M2880 2056 c0 -12 42 -97 46 -93 3 3 -3 22 -12 43 -9 22 -16 42 -16
47 1 4 -2 7 -8 7 -5 0 -10 -2 -10 -4z"/>
<path d="M15 1301 c14 -157 92 -390 183 -545 149 -256 375 -469 627 -595 107
-54 282 -116 355 -126 24 -4 47 -8 50 -10 4 -2 40 -6 81 -9 92 -7 67 3 -101
39 -189 41 -384 123 -535 225 -87 59 -224 180 -287 252 -164 188 -296 467
-344 723 -22 119 -37 142 -29 46z"/>
<path d="M2961 1214 c-5 -22 -13 -52 -17 -69 -50 -224 -205 -496 -383 -672
-111 -110 -128 -125 -226 -192 -156 -108 -359 -189 -581 -236 -64 -13 -119
-26 -122 -30 -6 -6 127 3 138 10 3 2 26 6 50 10 62 9 219 60 304 99 226 104
435 274 588 479 55 75 143 225 150 257 2 8 7 18 11 21 4 3 9 16 10 27 1 12 5
22 9 22 4 0 7 3 6 8 0 4 6 24 16 45 9 21 14 42 11 47 -4 6 -2 10 3 10 7 0 25
60 36 120 2 8 6 28 11 43 4 15 5 30 2 33 -3 4 -10 -11 -16 -32z"/>
</g>
</svg>
